# xmcd CD database file
#
# Track frame offsets:
#	150
#	4540
#	21560
#	42404
#	59833
#	88669
#	111868
#	142517
#	169492
#	189082
#	210531
#	246254
#	268326
#
# Disc length: 3896 seconds
#
# Revision: 0
# Processed by: cddbd v1.5.2PL0 Copyright (c) Steve Scherf et al.
# Submitted via: CDex 1.50beta10
#
DISCID=b80f360d
DTITLE=Eliah - Flower of Life
DYEAR=2001
DGENRE=Jazz
TTITLE0=Prana
TTITLE1=Awakening
TTITLE2=Summer Dance
TTITLE3=My Love
TTITLE4=Closer
TTITLE5=Melchizedek Groove
TTITLE6=Mitosis
TTITLE7=Surrender
TTITLE8=Little Bell
TTITLE9=Midnight Melody
TTITLE10=Reflections
TTITLE11=Angel
TTITLE12=Inspiration
EXTD=YEAR: 2001
EXTT0=
EXTT1=
EXTT2=
EXTT3=
EXTT4=
EXTT5=
EXTT6=
EXTT7=
EXTT8=
EXTT9=
EXTT10=
EXTT11=
EXTT12=
PLAYORDER=
